<svg width="330" height="87" viewBox="0 0 330 87" class="css-1j8o68f"><defs id="SvgjsDefs2071"><linearGradient id="SvgjsLinearGradient2078"><stop id="SvgjsStop2079" stop-color="#7f00ff" offset="0"></stop><stop id="SvgjsStop2080" stop-color="#e100ff" offset="1"></stop></linearGradient><linearGradient id="SvgjsLinearGradient2081"><stop id="SvgjsStop2082" stop-color="#00ddff" offset="0"></stop><stop id="SvgjsStop2083" stop-color="#ff00d4" offset="1"></stop></linearGradient></defs><g id="SvgjsG2072" featurekey="symbolContainer" transform="matrix(1,0,0,1,0,0)" fill="url(#SvgjsLinearGradient2078)"><rect xmlns="http://www.w3.org/2000/svg" width="110" height="87" rx="10" ry="10"></rect></g><g id="SvgjsG2073" featurekey="symbolFeature-0" transform="matrix(1.0009836325979509,0,0,1.0009836325979509,5.951801048088026,-6.410909463034354)" fill="#ffffff"><title xmlns="http://www.w3.org/2000/svg">28-08-2015 - code</title><desc xmlns="http://www.w3.org/2000/svg">Created with Sketch.</desc><g xmlns="http://www.w3.org/2000/svg" stroke="none" stroke-width="1" fill="none" fill-rule="evenodd" xmlns:sketch="http://www.bohemiancoding.com/sketch/ns" sketch:type="MSPage"><g sketch:type="MSArtboardGroup" fill="#ffffff"><path d="M83.9420361,50.0031761 C84.0455988,49.2560782 83.807666,48.4723838 83.2325201,47.8972379 L68.0203173,32.6850351 C67.0506811,31.7153989 65.4688221,31.7109131 64.4959279,32.6838072 C63.5162509,33.6634843 63.5235834,35.2346243 64.4971558,36.2081966 L78.2881642,49.9992051 L64.4995875,63.7877818 C63.5299513,64.757418 63.5254654,66.339277 64.4983596,67.3121712 C65.4780367,68.2918482 67.0491767,68.2845157 68.022749,67.3109433 L83.2349518,52.0987406 C83.8046831,51.5290093 84.0412048,50.7479135 83.9420361,50.0031761 L83.9420361,50.0031761 Z M14.0579639,50.0031761 C13.9544012,49.2560782 14.192334,48.4723838 14.7674799,47.8972379 L29.9796827,32.6850351 C30.9493189,31.7153989 32.5311779,31.7109131 33.5040721,32.6838072 C34.4837491,33.6634843 34.4764166,35.2346243 33.5028442,36.2081966 L19.7118358,49.9992051 L33.5004125,63.7877818 C34.4700487,64.757418 34.4745346,66.339277 33.5016404,67.3121712 C32.5219633,68.2918482 30.9508233,68.2845157 29.977251,67.3109433 L14.7650482,52.0987406 C14.1953169,51.5290093 13.9587952,50.7479135 14.0579639,50.0031761 L14.0579639,50.0031761 Z M54.9901856,27.6944914 C55.3662544,26.661251 56.5053113,26.1272656 57.5505036,26.5076845 C58.5884594,26.8854695 59.1258109,28.0271719 58.7489561,29.062572 L43.0098144,72.3055086 C42.6337456,73.338749 41.4946887,73.8727344 40.4494964,73.4923155 C39.4115406,73.1145305 38.8741891,71.9728281 39.2510439,70.937428 L54.9901856,27.6944914 Z" sketch:type="MSShapeGroup"></path></g></g></g><g id="SvgjsG2074" featurekey="nameFeature-0" transform="matrix(0.8006405515350049,0,0,0.8006405515350049,128.1425141647749,20.185748033766274)" fill="url(#SvgjsLinearGradient2081)"><path d="M10.32 40 l-8 0 l0 -30 l15.08 0 c7.44 0 10.24 3.16 10.24 11 c0 8.44 -1.88 11.32 -10.24 11.32 l-7.08 0 l0 7.68 z M10.32 25.36 l5.48 0 c3.16 -0.12 3.6 -0.48 3.6 -4.36 c0 -3.08 -0.48 -4.04 -3.6 -4.04 l-5.48 0 l0 8.4 z M39.96 31.32 c-1.68 0 -3 0.28 -3 2.2 c0 2.28 1.96 2.28 3 2.28 c2.88 0 3.76 -0.36 3.76 -2.56 c0 -1.76 -1.52 -1.92 -3.76 -1.92 z M43.72 40 l0.24 -3.12 l-0.24 0 c-0.52 2.88 -3.64 3.36 -6.04 3.36 c-4.8 0 -7.6 -1.16 -7.6 -6.52 c0 -5.04 2.64 -6.6 7.6 -6.6 c1.96 0 4.96 -0.04 5.72 2.36 l0.32 0 l0 -3.32 c0 -1.96 -0.12 -3.2 -3.12 -3.2 c-1.72 0 -2.8 0.4 -2.8 2.28 l-6.88 0 c0 -6.52 4.76 -6.48 9.68 -6.48 c7.04 0 10 0.88 10 8.12 l0 13.12 l-6.88 0 z M43.72 9.760000000000002 l2 4.44 l-9.04 2.84 l-1.12 -2.48 z M62.04 10 l0 30 l-6.88 0 l0 -30 l6.88 0 z M85.96000000000001 19 l-5.28 22.84 c-1.16 5.52 -3.2 7.48 -9.04 7.48 c-0.8 0 -1.56 -0.08 -2.36 -0.12 l0 -4.76 c0.4 0.04 0.8 0.08 1.2 0.08 c2.88 0 3.48 -2.12 3.6 -4.52 l-3.76 0 l-6.24 -21 l7.2 0 l4.16 17.08 l0.08 0 l3.4 -17.08 l7.04 0 z M94.28 19 l0 21 l-6.88 0 l0 -21 l6.88 0 z M94.28 10 l0 5.28 l-6.88 0 l0 -5.28 l6.88 0 z M120.92000000000002 10 l0 11.28 l2.4 0 l7.72 -11.28 l9.68 0 l-10.56 14.72 l11.44 15.28 l-9.92 0 l-8.36 -11.76 l-2.4 0 l0 11.76 l-8 0 l0 -30 l8 0 z M153.84000000000003 28.16 l0 -1 c0 -1.48 0.08 -3.12 -1.8 -3.12 c-2.08 0 -2.56 1.64 -2.56 3.36 l0 12.6 l-6.88 0 l0 -21 l6.68 0 l0 3.08 l0.28 0 c0.48 -1.2 1.16 -2.04 2.04 -2.56 s1.96 -0.76 3.24 -0.76 c4.8 0 5.2 3.92 5.2 7.76 l0 1.64 l-6.2 0 z M169.08 19 l0 21 l-6.88 0 l0 -21 l6.88 0 z M169.08 10 l0 5.28 l-6.88 0 l0 -5.28 l6.88 0 z M191.60000000000002 24.96 l-6.48 0 c-0.12 -0.88 -0.56 -1.32 -1.08 -1.56 c-0.52 -0.2 -1.16 -0.2 -1.72 -0.2 c-3.6 0 -3.6 0.44 -3.6 1.68 c0 1.04 0.08 1.76 3.6 1.84 c7.12 0.16 10.28 0.56 10.28 6.44 c0 6.16 -4.76 7.08 -10.28 7.08 c-5.44 0 -10.28 0.12 -10.28 -6.8 l6.88 0 c0 2.36 1.72 2.36 3.4 2.36 c3.12 0 3.6 -0.2 3.6 -1.84 c0 -2.08 -1.2 -2.08 -3.6 -2.08 c-8.72 0 -10.28 -1.96 -10.28 -6.24 c0 -6.76 4.44 -6.88 10.28 -6.88 c3.84 0 9.28 0.04 9.28 5.2 l0 1 z M211.84000000000003 19 l0 5.04 l-7.96 0 l0 9.4 c0.04 1.24 0.28 1.76 1.56 1.76 c1.8 0 1.72 -1.28 1.8 -2.72 l0.04 -1.12 l5.48 0 l0 1.88 c0 5.72 -2.12 7 -7.72 7 c-4.4 0 -8.04 -0.56 -8.04 -5.84 l0 -10.36 l-2.56 0 l0 -5.04 l2.56 0 l0 -4.44 l6.88 0 l0 4.44 l7.96 0 z M225.12000000000003 18.76 c8.8 0 10.52 1.88 10.52 10.76 c0 8.64 -1.8 10.72 -10.52 10.72 c-8.6 0 -10.48 -2.32 -10.48 -10.72 c0 -8.6 1.72 -10.76 10.48 -10.76 z M225.24000000000004 24.04 c-3.32 0 -3.72 0.92 -3.72 5.48 s0.4 5.44 3.72 5.44 c3.2 0 3.52 -0.88 3.52 -5.44 s-0.32 -5.48 -3.52 -5.48 z M228.24000000000004 9.760000000000002 l2 4.44 l-9.04 2.84 l-1.12 -2.48 z M252.12000000000003 19 l0 5.04 l-4.68 0 l0 15.96 l-6.88 0 l0 -15.96 l-2.76 0 l0 -5.04 l2.76 0 l0 -2.04 c0 -5.52 2.12 -7.04 11.28 -6.96 l0 5.24 c-0.4 -0.12 -0.84 -0.2 -1.28 -0.2 c-3.04 0 -3.12 0.56 -3.12 3.2 l0 0.76 l4.68 0 z"></path></g></svg>